<svg id="svg" version="1.1" xmlns="http://www.w3.org/2000/svg" xmlns:xlink="http://www.w3.org/1999/xlink"
     width="1000"
     height="1000" viewBox="0, 0, 400,400">
    <g id="svgg">
        <path id="path0"
              d="M77.812 163.150 C 64.016 171.562,62.155 172.809,62.772 173.229 C 63.160 173.493,70.320 177.886,78.684 182.991 L 93.891 192.273 95.090 191.579 C 95.749 191.198,101.211 187.869,107.227 184.183 C 113.242 180.497,119.878 176.461,121.973 175.216 C 124.067 173.970,125.777 172.840,125.771 172.706 C 125.766 172.571,122.734 170.655,119.033 168.447 C 115.332 166.239,108.262 161.979,103.320 158.980 C 98.379 155.981,94.160 153.532,93.945 153.539 C 93.730 153.546,86.470 157.871,77.812 163.150 M59.766 196.229 L 59.766 213.879 66.895 218.214 C 80.720 226.620,88.490 231.344,89.746 232.106 L 91.016 232.876 91.016 215.105 L 91.016 197.333 88.379 195.800 C 86.929 194.957,79.897 190.738,72.754 186.423 L 59.766 178.579 59.766 196.229 M119.531 183.822 C 114.697 186.735,107.710 190.965,104.004 193.222 L 97.266 197.324 97.266 214.873 C 97.266 224.525,97.362 232.422,97.480 232.422 C 97.670 232.422,121.256 217.893,126.465 214.567 L 128.516 213.257 128.516 195.886 C 128.516 186.332,128.472 178.518,128.418 178.521 C 128.364 178.523,124.365 180.909,119.531 183.822 "
              stroke="none" fill="#4d85d9" fill-rule="evenodd"></path>
        <path id="path1"
              d="M89.029 149.656 C 66.024 163.649,66.426 163.416,67.029 162.440 C 67.204 162.158,67.136 162.095,66.851 162.271 C 66.599 162.427,66.487 162.705,66.601 162.890 C 66.715 163.075,64.446 164.648,61.559 166.385 C 58.671 168.122,55.851 170.088,55.291 170.753 L 54.274 171.962 54.310 194.583 C 54.329 207.024,54.486 217.116,54.659 217.010 C 55.008 216.794,56.356 218.123,56.074 218.405 C 55.976 218.503,56.196 218.586,56.562 218.591 C 56.927 218.595,65.020 223.402,74.545 229.273 C 93.848 241.170,93.654 241.083,96.993 239.289 C 99.090 238.163,99.390 238.079,98.986 238.732 C 98.812 239.014,98.879 239.077,99.165 238.901 C 99.416 238.745,99.534 238.475,99.425 238.299 C 99.317 238.124,102.698 235.828,106.938 233.197 C 111.179 230.565,116.670 227.147,119.141 225.601 C 121.611 224.055,125.625 221.597,128.060 220.139 C 134.595 216.227,133.981 218.972,133.983 193.633 C 133.985 168.855,134.341 170.978,129.723 168.232 C 127.853 167.120,126.660 166.174,126.813 165.926 C 126.969 165.673,126.891 165.617,126.618 165.786 C 125.905 166.226,107.920 155.473,108.101 154.715 C 108.152 154.501,107.976 154.408,107.710 154.509 C 107.444 154.610,104.600 153.109,101.389 151.174 C 94.132 146.801,93.792 146.759,89.029 149.656 M94.958 153.145 C 95.380 153.370,95.605 153.749,95.458 153.986 C 95.300 154.242,95.370 154.307,95.630 154.147 C 96.161 153.819,101.626 157.003,101.336 157.472 C 101.223 157.654,101.360 157.717,101.640 157.612 C 102.299 157.364,105.566 159.529,105.178 159.956 C 105.016 160.135,105.099 160.157,105.363 160.006 C 106.009 159.634,107.513 160.474,107.177 161.017 C 107.023 161.267,107.088 161.339,107.332 161.189 C 107.908 160.832,110.608 162.475,110.291 162.989 C 110.141 163.231,110.222 163.287,110.486 163.124 C 111.041 162.781,112.607 163.814,112.205 164.258 C 112.045 164.434,112.133 164.452,112.402 164.298 C 112.991 163.959,114.569 164.976,114.158 165.430 C 113.998 165.606,114.090 165.622,114.363 165.465 C 115.002 165.097,117.666 166.730,117.325 167.281 C 117.173 167.526,117.251 167.585,117.512 167.423 C 118.109 167.055,121.556 169.100,121.229 169.629 C 121.080 169.869,121.159 169.928,121.416 169.769 C 122.024 169.393,123.523 170.249,123.193 170.783 C 123.034 171.041,123.105 171.104,123.369 170.941 C 123.907 170.608,125.494 171.392,125.210 171.850 C 125.099 172.030,125.307 172.153,125.673 172.124 C 126.038 172.094,126.390 172.334,126.455 172.656 C 126.599 173.371,120.501 177.116,119.849 176.713 C 119.589 176.552,119.519 176.617,119.677 176.873 C 120.007 177.407,118.508 178.263,117.900 177.887 C 117.636 177.724,117.565 177.788,117.724 178.045 C 118.054 178.579,116.555 179.435,115.947 179.059 C 115.683 178.896,115.612 178.959,115.771 179.217 C 116.101 179.751,114.602 180.607,113.994 180.231 C 113.730 180.068,113.659 180.131,113.818 180.389 C 114.148 180.923,112.649 181.779,112.041 181.403 C 111.784 181.244,111.705 181.303,111.853 181.542 C 112.171 182.056,109.471 183.699,108.894 183.343 C 108.651 183.192,108.586 183.264,108.740 183.514 C 109.070 184.048,107.571 184.904,106.963 184.528 C 106.706 184.369,106.627 184.428,106.775 184.667 C 107.099 185.192,104.392 186.817,103.779 186.465 C 103.527 186.321,103.451 186.347,103.611 186.523 C 104.013 186.967,102.447 188.001,101.892 187.658 C 101.621 187.490,101.548 187.551,101.708 187.811 C 102.039 188.345,100.539 189.201,99.932 188.825 C 99.675 188.666,99.596 188.725,99.744 188.964 C 100.061 189.478,97.361 191.121,96.785 190.764 C 96.540 190.613,96.476 190.687,96.633 190.940 C 96.794 191.201,96.307 191.675,95.424 192.118 C 93.925 192.870,92.750 192.857,93.222 192.094 C 93.373 191.850,93.296 191.790,93.037 191.950 C 92.429 192.326,90.930 191.470,91.260 190.936 C 91.414 190.686,91.349 190.614,91.106 190.764 C 90.529 191.121,87.829 189.478,88.147 188.964 C 88.295 188.725,88.216 188.666,87.959 188.825 C 87.351 189.201,85.852 188.345,86.182 187.811 C 86.336 187.562,86.271 187.489,86.031 187.638 C 85.457 187.992,80.803 185.172,81.119 184.662 C 81.265 184.425,81.182 184.371,80.920 184.533 C 80.365 184.876,78.799 183.842,79.202 183.398 C 79.361 183.222,79.269 183.206,78.997 183.363 C 78.357 183.732,75.694 182.098,76.034 181.547 C 76.187 181.300,76.108 181.243,75.842 181.408 C 75.287 181.751,73.721 180.717,74.124 180.273 C 74.283 180.097,74.198 180.077,73.934 180.229 C 73.288 180.600,71.784 179.761,72.120 179.217 C 72.282 178.954,72.207 178.896,71.928 179.069 C 71.325 179.441,68.670 177.790,69.003 177.250 C 69.154 177.006,69.077 176.946,68.818 177.106 C 68.211 177.482,66.711 176.626,67.042 176.092 C 67.201 175.834,67.130 175.771,66.865 175.934 C 66.258 176.310,64.758 175.454,65.088 174.920 C 65.249 174.660,65.176 174.599,64.905 174.767 C 64.373 175.095,62.767 174.082,63.174 173.675 C 63.327 173.522,63.152 173.512,62.784 173.653 C 62.343 173.822,62.026 173.675,61.852 173.222 C 61.539 172.406,63.109 170.944,63.952 171.267 C 64.250 171.382,64.392 171.310,64.267 171.109 C 63.966 170.622,65.519 169.810,66.084 170.159 C 66.343 170.319,66.420 170.260,66.269 170.016 C 65.935 169.476,68.591 167.824,69.194 168.197 C 69.473 168.369,69.548 168.311,69.385 168.049 C 69.055 167.515,70.554 166.659,71.162 167.034 C 71.427 167.198,71.498 167.134,71.338 166.877 C 71.008 166.343,72.508 165.487,73.115 165.863 C 73.372 166.021,73.451 165.963,73.303 165.724 C 72.979 165.199,75.686 163.574,76.300 163.925 C 76.552 164.070,76.627 164.044,76.467 163.867 C 76.065 163.423,77.631 162.390,78.186 162.733 C 78.457 162.901,78.530 162.840,78.370 162.580 C 78.034 162.036,79.538 161.197,80.184 161.568 C 80.448 161.720,80.533 161.700,80.374 161.523 C 79.971 161.079,81.537 160.046,82.092 160.389 C 82.364 160.557,82.437 160.496,82.276 160.236 C 81.946 159.702,83.445 158.846,84.053 159.222 C 84.312 159.382,84.388 159.322,84.238 159.078 C 83.904 158.538,86.560 156.887,87.163 157.259 C 87.442 157.432,87.516 157.374,87.354 157.111 C 87.024 156.577,88.523 155.721,89.131 156.097 C 89.395 156.260,89.466 156.197,89.307 155.939 C 88.977 155.405,90.476 154.549,91.084 154.925 C 91.348 155.088,91.419 155.025,91.260 154.767 C 90.946 154.259,92.416 153.369,92.987 153.722 C 93.202 153.855,93.354 153.819,93.323 153.642 C 93.148 152.638,93.699 152.470,94.958 153.145 M154.872 193.945 C 154.872 207.910,154.921 213.566,154.980 206.515 C 155.040 199.463,155.040 188.037,154.980 181.124 C 154.920 174.211,154.872 179.980,154.872 193.945 M155.564 193.848 L 155.664 218.945 159.668 219.057 L 163.672 219.168 163.672 208.249 C 163.672 202.243,163.779 197.051,163.909 196.712 C 164.168 196.037,185.579 195.754,186.615 196.412 C 186.975 196.640,187.123 199.538,187.201 207.832 L 187.305 218.945 191.309 219.057 L 195.313 219.168 195.313 193.959 L 195.313 168.750 191.211 168.750 L 187.109 168.750 187.109 178.633 C 187.109 185.799,186.981 188.644,186.641 188.984 C 185.842 189.783,164.218 189.641,163.909 188.835 C 163.779 188.495,163.672 183.837,163.672 178.484 L 163.672 168.750 159.567 168.750 L 155.463 168.750 155.564 193.848 M248.828 178.083 C 248.828 183.387,248.954 183.203,245.326 183.203 C 242.675 183.203,242.592 183.336,242.583 187.598 L 242.578 190.234 245.336 190.234 C 247.053 190.234,248.003 190.380,247.854 190.621 C 247.720 190.837,247.868 190.910,248.190 190.786 C 248.686 190.596,248.786 192.118,248.920 201.826 C 249.121 216.381,249.719 218.099,255.144 219.710 C 260.435 221.281,268.842 219.496,268.723 216.826 C 268.703 216.385,268.607 216.431,268.382 216.992 C 268.149 217.571,267.934 216.985,267.550 214.734 C 267.128 212.262,266.918 211.740,266.426 211.936 C 262.698 213.417,259.484 212.899,257.910 210.563 C 257.034 209.264,257.020 209.066,257.122 199.835 L 257.227 190.430 262.012 190.320 L 266.797 190.210 266.802 187.586 C 266.805 186.142,266.914 184.565,267.043 184.082 C 267.277 183.208,267.255 183.203,262.773 183.203 C 256.592 183.203,257.031 183.595,257.031 178.083 L 257.031 173.438 252.930 173.438 L 248.828 173.438 248.828 178.083 M61.476 179.374 C 61.315 179.634,61.385 179.699,61.650 179.534 C 62.258 179.159,63.757 180.015,63.427 180.549 C 63.268 180.806,63.339 180.870,63.603 180.706 C 64.211 180.331,65.710 181.186,65.380 181.721 C 65.221 181.978,65.292 182.042,65.557 181.878 C 66.164 181.503,67.664 182.358,67.333 182.892 C 67.174 183.150,67.245 183.213,67.510 183.050 C 68.117 182.674,69.617 183.530,69.287 184.064 C 69.126 184.325,69.199 184.385,69.472 184.217 C 70.059 183.854,74.670 186.695,74.346 187.220 C 74.204 187.449,74.290 187.502,74.544 187.345 C 75.140 186.976,78.587 189.022,78.260 189.551 C 78.111 189.791,78.190 189.850,78.447 189.691 C 79.055 189.315,80.554 190.171,80.224 190.705 C 80.065 190.962,80.136 191.026,80.400 190.863 C 81.008 190.487,82.507 191.343,82.177 191.877 C 82.018 192.134,82.089 192.198,82.353 192.034 C 82.961 191.659,84.460 192.515,84.130 193.049 C 83.971 193.306,84.042 193.370,84.307 193.206 C 84.914 192.831,86.414 193.686,86.083 194.221 C 85.924 194.478,85.995 194.542,86.260 194.378 C 86.867 194.003,88.367 194.858,88.037 195.392 C 87.877 195.650,87.948 195.713,88.213 195.550 C 88.821 195.174,90.320 196.030,89.990 196.564 C 89.825 196.830,89.903 196.885,90.191 196.706 C 90.449 196.547,90.915 196.630,91.228 196.889 C 91.946 197.485,92.099 232.813,91.383 232.813 C 91.156 232.813,91.078 232.988,91.211 233.203 C 91.522 233.706,91.162 233.699,90.198 233.184 C 89.776 232.958,89.551 232.579,89.698 232.342 C 89.857 232.084,89.786 232.021,89.522 232.184 C 88.914 232.560,87.415 231.704,87.745 231.170 C 87.904 230.913,87.833 230.849,87.568 231.012 C 86.961 231.388,85.461 230.532,85.792 229.998 C 85.945 229.750,85.881 229.677,85.640 229.825 C 85.067 230.180,80.413 227.360,80.728 226.849 C 80.873 226.615,80.792 226.558,80.537 226.716 C 79.929 227.091,78.430 226.235,78.760 225.701 C 78.921 225.441,78.848 225.380,78.577 225.548 C 78.022 225.891,76.456 224.858,76.858 224.414 C 77.018 224.238,76.942 224.212,76.690 224.356 C 76.077 224.707,73.369 223.082,73.694 222.558 C 73.837 222.326,73.764 222.259,73.528 222.405 C 72.951 222.761,70.251 221.118,70.569 220.605 C 70.717 220.365,70.638 220.307,70.381 220.466 C 69.773 220.841,68.274 219.985,68.604 219.451 C 68.763 219.194,68.692 219.130,68.428 219.294 C 67.820 219.669,66.321 218.814,66.651 218.279 C 66.810 218.022,66.739 217.958,66.475 218.122 C 65.867 218.497,64.368 217.642,64.698 217.108 C 64.858 216.849,64.786 216.787,64.519 216.952 C 63.922 217.320,60.475 215.275,60.802 214.746 C 60.956 214.498,60.871 214.448,60.590 214.622 C 59.061 215.567,58.984 214.687,58.984 196.111 C 58.984 186.290,59.095 178.145,59.229 178.010 C 59.636 177.604,61.769 178.899,61.476 179.374 M129.060 178.352 C 129.190 178.692,129.297 186.764,129.297 196.289 L 129.297 213.608 127.937 214.449 C 127.185 214.914,126.355 215.162,126.081 215.004 C 125.809 214.847,125.722 214.868,125.889 215.052 C 126.295 215.498,121.584 218.467,121.023 218.120 C 120.766 217.962,120.690 218.022,120.841 218.266 C 121.174 218.806,118.518 220.457,117.916 220.084 C 117.642 219.915,117.562 219.970,117.716 220.219 C 118.049 220.759,115.393 222.410,114.791 222.037 C 114.512 221.865,114.437 221.923,114.599 222.186 C 114.929 222.720,113.430 223.576,112.822 223.200 C 112.564 223.040,112.486 223.100,112.637 223.343 C 112.961 223.868,109.097 226.288,108.512 225.926 C 108.266 225.774,108.193 225.839,108.341 226.078 C 108.674 226.618,106.018 228.269,105.416 227.897 C 105.137 227.724,105.062 227.782,105.224 228.045 C 105.554 228.579,104.055 229.435,103.447 229.059 C 103.188 228.899,103.112 228.959,103.264 229.205 C 103.508 229.601,98.092 233.203,97.252 233.203 C 97.015 233.203,96.875 226.443,96.875 215.040 L 96.875 196.876 98.730 195.709 C 99.751 195.068,100.815 194.626,101.095 194.728 C 101.374 194.830,101.506 194.756,101.388 194.565 C 101.098 194.096,103.855 192.500,104.387 192.829 C 104.631 192.980,104.696 192.907,104.542 192.658 C 104.211 192.124,105.711 191.268,106.318 191.644 C 106.573 191.801,106.654 191.744,106.509 191.509 C 106.183 190.982,111.580 187.759,112.174 188.126 C 112.442 188.292,112.514 188.229,112.354 187.971 C 112.040 187.462,113.509 186.572,114.080 186.925 C 114.296 187.058,114.424 186.935,114.365 186.650 C 114.306 186.364,114.561 186.157,114.937 186.186 C 115.311 186.216,115.526 186.093,115.415 185.913 C 115.126 185.445,116.719 184.676,117.293 185.006 C 117.557 185.157,117.643 185.137,117.483 184.961 C 117.081 184.517,118.647 183.484,119.202 183.827 C 119.473 183.995,119.546 183.934,119.385 183.674 C 119.055 183.140,120.554 182.284,121.162 182.659 C 121.427 182.823,121.498 182.759,121.338 182.502 C 121.008 181.968,122.508 181.112,123.115 181.488 C 123.380 181.651,123.451 181.587,123.292 181.330 C 122.961 180.796,124.461 179.940,125.068 180.316 C 125.312 180.466,125.406 180.419,125.277 180.210 C 124.981 179.731,127.207 178.385,127.745 178.717 C 127.965 178.853,128.119 178.819,128.088 178.642 C 127.907 177.599,128.682 177.368,129.060 178.352 M59.543 188.086 C 59.544 193.242,59.599 195.298,59.667 192.653 C 59.735 190.009,59.734 185.790,59.667 183.278 C 59.599 180.766,59.543 182.930,59.543 188.086 M216.016 182.719 C 201.656 186.633,198.410 209.103,211.022 217.281 C 215.767 220.358,226.768 221.317,233.209 219.215 C 237.213 217.909,237.307 217.792,236.520 215.084 C 236.119 213.704,235.960 212.306,236.113 211.490 C 236.264 210.685,236.207 210.156,235.967 210.156 C 235.750 210.156,235.665 210.399,235.779 210.697 C 236.047 211.397,231.820 212.706,227.615 213.225 C 220.456 214.109,214.665 212.008,212.464 207.730 C 211.694 206.233,211.441 204.079,212.082 204.476 C 212.282 204.599,212.559 204.517,212.697 204.294 C 212.836 204.070,212.804 203.935,212.627 203.994 C 212.450 204.053,212.217 203.926,212.109 203.711 C 211.982 203.456,216.342 203.285,224.707 203.217 L 237.500 203.114 237.477 199.506 C 237.398 186.757,228.044 179.440,216.016 182.719 M267.547 183.496 C 267.734 184.845,267.761 184.872,267.890 183.839 C 267.967 183.222,267.876 182.563,267.687 182.375 C 267.491 182.178,267.431 182.657,267.547 183.496 M286.761 182.454 C 269.434 185.857,267.600 213.501,284.313 219.341 C 293.067 222.399,302.913 218.764,306.697 211.078 C 307.907 208.619,308.785 207.467,308.382 208.866 C 308.268 209.260,308.383 209.182,308.642 208.689 C 309.079 207.859,309.185 207.972,310.475 210.639 C 318.920 228.098,344.531 220.973,344.531 201.165 C 344.531 181.315,319.139 174.326,310.605 191.826 C 308.905 195.314,308.602 195.324,307.042 191.954 C 303.590 184.496,295.547 180.728,286.761 182.454 M267.669 186.328 C 267.669 187.080,267.749 187.388,267.847 187.012 C 267.946 186.636,267.946 186.021,267.847 185.645 C 267.749 185.269,267.669 185.576,267.669 186.328 M303.906 186.523 C 304.635 187.275,305.319 187.891,305.427 187.891 C 305.534 187.891,305.026 187.275,304.297 186.523 C 303.568 185.771,302.884 185.156,302.776 185.156 C 302.669 185.156,303.177 185.771,303.906 186.523 M224.931 188.906 C 227.806 190.338,231.036 195.787,229.765 197.058 C 229.199 197.624,212.083 197.260,211.859 196.677 C 209.888 191.540,219.158 186.029,224.931 188.906 M293.653 190.300 C 300.231 191.956,303.249 201.669,299.113 207.870 C 293.098 216.887,280.260 211.753,280.955 200.608 C 281.432 192.968,286.834 188.583,293.653 190.300 M329.164 190.291 C 334.623 191.666,337.894 199.385,335.589 205.453 C 331.308 216.719,316.427 213.602,316.363 201.427 C 316.320 193.186,321.784 188.433,329.164 190.291 M220.508 196.484 L 211.914 196.703 220.605 196.789 C 226.197 196.844,229.297 196.736,229.297 196.484 C 229.297 196.270,229.253 196.133,229.199 196.180 C 229.146 196.227,225.234 196.364,220.508 196.484 M91.195 215.039 C 91.195 224.707,91.246 228.606,91.308 223.704 C 91.370 218.801,91.370 210.891,91.308 206.126 C 91.246 201.360,91.195 205.371,91.195 215.039 M59.466 199.219 C 59.466 199.971,59.546 200.278,59.644 199.902 C 59.743 199.526,59.743 198.911,59.644 198.535 C 59.546 198.159,59.466 198.467,59.466 199.219 M186.028 199.609 C 186.028 200.361,186.109 200.669,186.207 200.293 C 186.305 199.917,186.305 199.302,186.207 198.926 C 186.109 198.550,186.028 198.857,186.028 199.609 M316.922 201.172 C 316.922 202.568,316.993 203.140,317.079 202.441 C 317.166 201.743,317.166 200.601,317.079 199.902 C 316.993 199.204,316.922 199.775,316.922 201.172 M202.455 201.367 C 202.458 202.441,202.534 202.834,202.624 202.241 C 202.714 201.647,202.711 200.768,202.619 200.288 C 202.526 199.807,202.453 200.293,202.455 201.367 M271.981 202.734 C 271.981 203.701,272.058 204.097,272.151 203.613 C 272.244 203.130,272.244 202.339,272.151 201.855 C 272.058 201.372,271.981 201.768,271.981 202.734 M217.090 204.192 C 218.003 204.275,219.497 204.275,220.410 204.192 C 221.323 204.110,220.576 204.043,218.750 204.043 C 216.924 204.043,216.177 204.110,217.090 204.192 M231.543 204.182 C 232.026 204.275,232.817 204.275,233.301 204.182 C 233.784 204.089,233.389 204.013,232.422 204.013 C 231.455 204.013,231.060 204.089,231.543 204.182 M59.466 205.469 C 59.466 206.221,59.546 206.528,59.644 206.152 C 59.743 205.776,59.743 205.161,59.644 204.785 C 59.546 204.409,59.466 204.717,59.466 205.469 M223.350 212.787 C 224.269 212.869,225.675 212.868,226.475 212.784 C 227.275 212.700,226.523 212.632,224.805 212.634 C 223.086 212.635,222.431 212.704,223.350 212.787 M93.066 240.894 C 93.442 240.993,94.058 240.993,94.434 240.894 C 94.810 240.796,94.502 240.716,93.750 240.716 C 92.998 240.716,92.690 240.796,93.066 240.894 "
              stroke="none" fill="#FFF" fill-rule="evenodd"></path>
        <path id="path2"
              d="M92.578 146.899 C 92.578 147.218,91.498 147.671,90.864 147.618 C 90.673 147.602,90.407 147.767,90.273 147.984 C 89.923 148.551,81.642 153.572,81.635 153.222 C 81.631 153.061,81.496 153.138,81.334 153.393 C 81.051 153.838,79.020 155.106,63.477 164.548 C 55.949 169.120,54.942 169.876,54.022 171.646 C 53.083 173.450,53.189 214.234,54.138 216.232 C 54.938 217.919,54.877 217.877,71.289 227.915 C 78.594 232.382,84.747 236.235,84.962 236.476 C 85.178 236.717,85.617 236.968,85.939 237.033 C 86.260 237.099,86.743 237.440,87.012 237.791 C 87.280 238.143,87.500 238.314,87.500 238.172 C 87.500 238.030,88.511 238.524,89.746 239.269 C 94.177 241.940,93.582 242.163,111.133 231.259 C 127.024 221.385,127.836 220.897,128.178 220.996 C 128.364 221.050,128.516 220.946,128.516 220.765 C 128.516 220.585,129.353 219.981,130.376 219.424 C 134.977 216.920,134.809 217.902,134.808 193.438 C 134.807 173.985,134.759 172.496,134.091 171.209 C 133.475 170.022,130.955 168.370,116.112 159.424 C 106.618 153.702,98.493 148.715,98.058 148.342 C 97.622 147.969,97.266 147.772,97.266 147.903 C 97.266 148.035,97.027 147.945,96.736 147.703 C 96.070 147.150,92.578 146.475,92.578 146.899 M103.535 152.465 C 107.929 155.109,113.193 158.303,115.234 159.562 C 117.275 160.821,120.791 162.936,123.047 164.262 C 131.738 169.370,132.904 170.145,133.437 171.172 C 134.406 173.038,134.228 214.635,133.245 216.248 C 132.735 217.083,130.230 218.844,125.140 221.946 C 121.089 224.415,116.367 227.312,114.648 228.385 C 95.548 240.300,96.012 240.039,93.945 240.039 C 92.059 240.039,59.968 221.117,55.664 217.467 L 54.492 216.473 54.385 194.215 L 54.278 171.957 55.291 170.754 C 55.848 170.092,58.445 168.254,61.062 166.669 C 63.679 165.084,71.094 160.570,77.539 156.637 C 93.062 147.165,92.144 147.666,93.965 147.661 C 95.300 147.657,96.795 148.408,103.535 152.465 M88.477 155.923 C 85.684 157.648,79.707 161.300,75.195 164.039 C 70.684 166.778,65.850 169.721,64.453 170.578 C 60.840 172.795,60.836 172.787,67.660 176.942 C 70.945 178.942,74.688 181.234,75.977 182.035 C 81.061 185.196,92.429 192.107,93.215 192.515 C 93.931 192.886,94.616 192.600,98.098 190.478 C 107.203 184.931,124.108 174.690,125.304 173.997 C 127.269 172.860,126.943 172.551,118.164 167.238 C 113.652 164.507,106.417 160.127,102.086 157.504 C 92.807 151.884,94.669 152.100,88.477 155.923 M104.883 159.774 C 110.684 163.275,117.838 167.561,120.781 169.300 C 123.724 171.038,126.140 172.549,126.149 172.656 C 126.158 172.764,124.540 173.838,122.555 175.043 C 120.570 176.248,113.674 180.454,107.232 184.389 C 100.790 188.324,95.077 191.707,94.537 191.908 C 93.585 192.261,62.563 173.922,62.244 172.818 C 62.139 172.452,93.757 153.096,94.130 153.298 C 94.243 153.360,99.082 156.274,104.883 159.774 M194.577 167.287 C 194.538 167.867,194.156 167.966,192.090 167.932 C 190.747 167.910,188.901 167.909,187.988 167.930 L 186.328 167.969 186.328 178.320 L 186.328 188.672 175.413 188.659 L 164.497 188.646 164.496 179.186 C 164.496 173.983,164.486 169.326,164.474 168.836 C 164.453 167.952,164.412 167.946,159.759 168.054 L 155.065 168.164 155.066 193.907 C 155.066 208.066,155.162 219.745,155.278 219.862 C 155.518 220.102,164.133 219.982,164.379 219.735 C 164.468 219.647,164.538 214.468,164.536 208.225 L 164.532 196.875 175.430 196.875 L 186.328 196.875 186.328 208.398 L 186.328 219.922 191.211 219.922 C 196.006 219.922,196.094 219.906,196.121 219.043 C 196.156 217.862,196.158 172.620,196.122 170.020 C 196.101 168.517,195.945 167.969,195.536 167.969 C 195.230 167.969,194.899 167.661,194.801 167.285 C 194.631 166.636,194.620 166.636,194.577 167.287 M163.672 178.484 C 163.672 183.837,163.779 188.495,163.909 188.835 C 164.218 189.641,185.842 189.783,186.641 188.984 C 186.981 188.644,187.109 185.799,187.109 178.633 L 187.109 168.750 191.211 168.750 L 195.313 168.750 195.313 193.959 L 195.313 219.168 191.309 219.057 L 187.305 218.945 187.201 207.832 C 187.123 199.538,186.975 196.640,186.615 196.412 C 185.579 195.754,164.168 196.037,163.909 196.712 C 163.779 197.051,163.672 202.243,163.672 208.249 L 163.672 219.168 159.668 219.057 L 155.664 218.945 155.564 193.848 L 155.463 168.750 159.567 168.750 L 163.672 168.750 163.672 178.484 M249.316 172.577 C 248.618 172.648,248.032 172.914,248.013 173.169 C 247.995 173.424,248.005 175.622,248.037 178.054 L 248.094 182.475 246.410 182.397 C 245.484 182.354,244.155 182.342,243.457 182.370 L 242.188 182.422 242.188 186.750 L 242.188 191.077 245.117 190.949 L 248.047 190.820 248.010 199.414 C 247.970 208.387,248.154 211.834,248.787 213.965 C 248.995 214.663,249.082 215.234,248.981 215.234 C 248.703 215.234,249.625 216.348,251.400 218.158 C 254.204 221.017,261.190 221.874,266.106 219.961 C 268.934 218.861,268.861 219.031,268.139 215.226 C 267.804 213.461,267.623 211.773,267.737 211.477 C 268.000 210.792,267.677 210.800,265.625 211.523 C 263.037 212.437,260.413 212.293,259.104 211.167 L 258.008 210.225 257.918 200.620 L 257.829 191.016 262.704 191.016 L 267.578 191.016 267.578 186.719 L 267.578 182.422 262.598 182.423 L 257.617 182.423 257.737 177.540 L 257.857 172.656 255.003 172.606 C 253.433 172.579,251.797 172.532,251.367 172.503 C 250.938 172.473,250.015 172.507,249.316 172.577 M257.031 178.083 C 257.031 183.595,256.592 183.203,262.773 183.203 C 267.255 183.203,267.277 183.208,267.043 184.082 C 266.914 184.565,266.805 186.142,266.802 187.586 L 266.797 190.210 262.012 190.320 L 257.227 190.430 257.122 199.835 C 257.020 209.066,257.034 209.264,257.910 210.563 C 259.481 212.894,262.694 213.417,266.406 211.944 C 267.332 211.577,268.448 217.772,267.593 218.531 C 264.663 221.133,255.010 220.772,251.785 217.940 C 249.339 215.792,249.096 214.436,248.920 201.956 C 248.742 189.373,249.019 190.249,245.215 190.240 L 242.578 190.234 242.583 187.598 C 242.592 183.336,242.675 183.203,245.326 183.203 C 248.954 183.203,248.828 183.387,248.828 178.083 L 248.828 173.438 252.930 173.438 L 257.031 173.438 257.031 178.083 M59.237 178.002 C 59.098 178.141,58.984 186.319,58.984 196.176 L 58.984 214.096 61.230 215.478 C 77.287 225.352,91.092 233.647,91.234 233.505 C 91.332 233.407,87.939 231.215,83.694 228.633 C 79.450 226.051,72.725 221.963,68.750 219.548 C 64.775 217.133,61.112 214.867,60.608 214.512 L 59.693 213.867 59.490 196.133 C 59.299 179.481,59.328 178.414,59.958 178.656 C 60.897 179.016,89.888 196.486,90.719 197.192 C 91.343 197.723,91.407 199.209,91.506 215.389 L 91.614 233.008 91.608 215.040 L 91.602 197.072 76.953 188.210 C 59.446 177.618,59.557 177.683,59.237 178.002 M116.211 185.115 C 109.551 189.151,102.520 193.417,100.586 194.595 L 97.070 196.737 96.969 214.970 C 96.902 226.939,97.002 233.203,97.258 233.203 C 97.677 233.203,102.521 230.256,116.211 221.674 C 120.938 218.710,125.815 215.689,127.051 214.960 L 129.297 213.634 129.297 196.302 C 129.297 180.059,129.205 177.702,128.571 177.756 C 128.433 177.768,122.871 181.079,116.211 185.115 M128.813 195.929 L 128.711 213.343 118.945 219.428 C 113.574 222.775,106.499 227.155,103.223 229.162 L 97.266 232.811 97.275 214.941 L 97.284 197.070 100.693 195.040 C 102.568 193.924,109.463 189.756,116.016 185.779 C 122.568 181.802,128.151 178.540,128.422 178.532 C 128.812 178.519,128.893 182.122,128.813 195.929 M324.001 181.476 C 316.314 182.795,310.477 187.701,309.166 193.945 C 309.031 194.590,309.624 193.711,310.484 191.992 C 320.742 171.497,350.001 184.783,343.806 207.123 C 339.396 223.029,317.722 225.247,310.384 210.543 C 309.322 208.416,308.983 207.968,309.143 208.904 C 309.264 209.612,309.849 210.983,310.443 211.952 C 311.037 212.921,311.681 214.019,311.874 214.392 C 312.067 214.766,313.301 215.891,314.617 216.893 C 327.801 226.933,345.313 217.843,345.313 200.958 C 345.313 189.066,334.953 179.595,324.001 181.476 M217.578 181.678 C 200.439 184.655,197.013 211.966,212.891 219.044 C 217.158 220.947,226.919 221.805,230.469 220.591 C 230.791 220.480,232.290 220.012,233.800 219.549 C 237.866 218.303,237.728 218.474,237.161 215.395 C 236.592 212.310,235.628 209.799,235.236 210.380 C 234.238 211.857,222.879 213.765,221.759 212.644 C 221.623 212.508,220.898 212.360,220.147 212.315 C 218.491 212.214,214.997 210.451,215.146 209.792 C 215.205 209.531,215.097 209.414,214.906 209.532 C 214.332 209.887,213.208 208.337,212.453 206.153 C 211.897 204.544,211.742 204.337,211.732 205.191 C 211.653 211.911,222.437 215.379,233.165 212.085 C 234.540 211.662,235.692 211.363,235.724 211.420 C 235.756 211.477,235.986 212.490,236.235 213.672 C 236.484 214.854,236.804 216.217,236.945 216.701 C 237.795 219.617,222.879 221.509,215.771 219.386 C 198.433 214.209,199.163 186.484,216.740 182.574 C 228.779 179.895,237.399 186.936,237.477 199.512 L 237.500 203.125 224.828 203.125 C 216.801 203.125,212.067 203.268,211.914 203.516 C 211.755 203.773,216.174 203.906,224.879 203.906 L 238.086 203.906 238.149 202.637 C 238.184 201.938,238.259 200.928,238.315 200.391 C 239.527 188.761,229.401 179.624,217.578 181.678 M286.879 181.807 C 282.790 182.736,275.313 187.584,275.392 189.256 C 275.397 189.367,274.975 190.300,274.454 191.328 C 271.546 197.067,271.362 204.609,273.984 210.645 C 274.334 211.450,274.554 212.109,274.474 212.109 C 274.223 212.109,276.687 214.934,278.312 216.508 C 287.157 225.077,304.923 220.813,308.216 209.331 C 308.727 207.547,308.054 208.322,306.697 211.078 C 300.673 223.314,281.457 223.586,275.167 211.523 C 269.936 201.492,273.482 188.202,282.517 183.974 C 292.141 179.470,302.895 182.994,307.072 192.019 C 308.506 195.116,308.950 195.122,307.793 192.030 C 305.031 184.648,295.304 179.893,286.879 181.807 M216.772 188.965 C 213.548 190.600,211.038 194.539,211.859 196.677 C 212.083 197.260,229.199 197.624,229.765 197.058 C 229.879 196.944,229.825 196.059,229.644 195.091 C 228.558 189.276,222.161 186.232,216.772 188.965 M225.649 189.956 C 227.337 191.021,229.297 194.255,229.297 195.975 L 229.297 196.875 220.660 196.875 L 212.022 196.875 212.288 195.410 C 212.763 192.799,215.478 189.649,217.525 189.337 C 217.973 189.269,218.476 189.073,218.642 188.901 C 219.309 188.216,224.015 188.924,225.649 189.956 M288.421 190.216 C 279.549 192.332,278.136 207.149,286.404 211.367 C 290.835 213.628,296.270 212.132,299.113 207.870 C 304.739 199.436,297.800 187.980,288.421 190.216 M322.690 190.514 C 318.652 191.941,316.335 195.938,316.363 201.427 C 316.427 213.602,331.308 216.719,335.589 205.453 C 339.034 196.386,331.329 187.463,322.690 190.514 M294.672 191.345 C 298.436 193.015,300.626 197.197,300.305 202.101 C 299.430 215.495,281.450 214.756,281.533 201.330 C 281.582 193.524,288.219 188.480,294.672 191.345 M330.505 191.534 C 332.233 192.446,334.945 195.488,334.570 196.094 C 334.460 196.272,334.544 196.477,334.757 196.549 C 335.747 196.883,335.987 201.991,335.159 205.069 C 334.660 206.922,332.473 209.869,331.790 209.607 C 331.498 209.495,331.301 209.605,331.352 209.853 C 331.668 211.378,326.053 212.175,322.853 211.058 C 321.253 210.500,318.639 208.308,318.958 207.792 C 319.056 207.633,318.881 207.406,318.569 207.286 C 316.851 206.627,316.322 198.936,317.794 196.025 C 318.633 194.366,319.939 192.933,320.369 193.199 C 320.553 193.313,320.703 193.123,320.703 192.777 C 320.703 190.791,327.471 189.932,330.505 191.534 M153.401 219.536 C 153.290 219.963,153.339 220.313,153.510 220.313 C 153.969 220.313,154.318 219.200,153.934 218.962 C 153.753 218.850,153.513 219.108,153.401 219.536 "
              stroke="none" fill="#040406" fill-rule="evenodd"></path>
        <path id="path3" d="" stroke="none" fill="#345489" fill-rule="evenodd"></path>
        <path id="path4"
              d="M247.966 172.558 C 247.621 172.974,247.730 173.000,248.534 172.694 C 249.081 172.486,249.635 172.421,249.765 172.551 C 249.894 172.680,250.000 172.592,250.000 172.355 C 250.000 171.770,248.496 171.920,247.966 172.558 M128.695 195.898 C 128.695 205.137,128.746 208.860,128.808 204.173 C 128.871 199.485,128.871 191.927,128.808 187.376 C 128.746 182.825,128.695 186.660,128.695 195.898 M207.983 186.426 L 206.836 187.695 208.105 186.548 C 208.804 185.917,209.375 185.346,209.375 185.278 C 209.375 184.977,209.053 185.242,207.983 186.426 M241.888 187.109 C 241.888 187.861,241.968 188.169,242.066 187.793 C 242.164 187.417,242.164 186.802,242.066 186.426 C 241.968 186.050,241.888 186.357,241.888 187.109 M345.411 200.586 C 345.415 201.445,345.495 201.751,345.589 201.265 C 345.682 200.779,345.679 200.076,345.581 199.702 C 345.483 199.329,345.407 199.727,345.411 200.586 M134.913 210.156 C 134.913 212.627,134.977 213.638,135.054 212.402 C 135.132 211.167,135.132 209.146,135.054 207.910 C 134.977 206.675,134.913 207.686,134.913 210.156 M222.159 221.376 C 222.853 221.462,224.083 221.463,224.894 221.379 C 225.704 221.294,225.137 221.224,223.633 221.222 C 222.129 221.220,221.466 221.289,222.159 221.376 M259.282 221.370 C 259.768 221.463,260.471 221.460,260.844 221.362 C 261.218 221.264,260.820 221.188,259.961 221.192 C 259.102 221.197,258.796 221.277,259.282 221.370 M289.746 221.369 C 290.229 221.463,291.021 221.463,291.504 221.369 C 291.987 221.276,291.592 221.200,290.625 221.200 C 289.658 221.200,289.263 221.276,289.746 221.369 M325.488 221.363 C 325.864 221.461,326.479 221.461,326.855 221.363 C 327.231 221.265,326.924 221.184,326.172 221.184 C 325.420 221.184,325.112 221.265,325.488 221.363 "
              stroke="none" fill="#28426f" fill-rule="evenodd"></path>
    </g>
</svg>